<svg xmlns="http://www.w3.org/2000/svg" width="57.034" height="59.335"><g data-name="Group 21"><path data-name="Path 7" d="M29.639 34.631l-6.767-7.922-19.8 23.006h13.184l6.451-7.543 7.09 7.543L43.331 34.25v15.453h13.7V3.513z" fill="#0068b5"/><g data-name="Group 17"><path data-name="Path 8" d="M57.025 0l-27.4 31.129-6.767-7.927L.001 49.708l.813-.005 22.044-25.568 6.762 7.918L57.035.91l-.005-.911z" fill="#a50005"/></g><g data-name="Group 19" fill="#0068b5"><path data-name="Path 9" d="M6.751 52.607l-2.016 4.289-2.011-4.289H0v6.656h1.724v-4.807l2.346 4.807h1.335l2.342-4.807v4.807h1.727v-6.656z"/><path data-name="Path 10" d="M14.457 54.197l1.143 2.45h-2.269zm-1.154-1.588l-3.193 6.656h1.971l.559-1.181h3.626l.566 1.181h1.972l-3.193-6.656z"/><path data-name="Rectangle 90" d="M19.49 52.609h1.781v6.656H19.49z"/><path data-name="Path 11" d="M28.716 52.607v4.863l-3.386-4.863h-2.752v6.656h1.78v-4.862l3.386 4.862h2.75v-6.656z"/><g data-name="Group 18"><path data-name="Path 12" d="M37.356 56.687h1.78v.662a1.957 1.957 0 01-.516 1.521 2.459 2.459 0 01-1.669.464h-2.895a2.815 2.815 0 01-1.923-.541 2.4 2.4 0 01-.6-1.838v-1.977a2.5 2.5 0 01.586-1.9 2.843 2.843 0 011.955-.542h2.142a4.126 4.126 0 012.25.433 2.036 2.036 0 01.6 1.74v.333h-1.781v-.193a.531.531 0 00-.2-.455 1.1 1.1 0 00-.653-.153h-1.915a1.143 1.143 0 00-.891.291 1.657 1.657 0 00-.254 1.066v.642a1.966 1.966 0 00.219 1.124 1.1 1.1 0 00.863.268h1.9a1.236 1.236 0 00.8-.173 1.2 1.2 0 00.2-.77"/><path data-name="Path 13" d="M40.05 56.946v-1.963a2.59 2.59 0 01.563-1.874 2.7 2.7 0 011.96-.574h2.937a2.677 2.677 0 011.938.574 2.525 2.525 0 01.575 1.843v1.99a2.568 2.568 0 01-.587 1.848 2.708 2.708 0 01-1.907.545h-2.956a2.831 2.831 0 01-1.924-.538 2.4 2.4 0 01-.6-1.851m1.835-1.356v.65a1.961 1.961 0 00.219 1.124 1.076 1.076 0 00.858.268h2.2a.95.95 0 00.818-.285 1.981 1.981 0 00.2-1.067v-.674a1.7 1.7 0 00-.249-1.08 1.088 1.088 0 00-.858-.286h-2.058a1.135 1.135 0 00-.891.291 1.7 1.7 0 00-.245 1.059"/><path data-name="Path 14" d="M49.098 52.608h2.751l3.387 4.862v-4.862h1.779v6.656h-2.75l-3.387-4.862v4.862h-1.781z"/></g></g></g></svg>